<?xml version="1.0" encoding="utf-8"?>
<!-- Generator: Adobe Illustrator 24.1.2, SVG Export Plug-In . SVG Version: 6.00 Build 0)  -->
<svg version="1.1" id="Слой_1" xmlns="http://www.w3.org/2000/svg" xmlns:xlink="http://www.w3.org/1999/xlink" x="0px" y="0px"
	 viewBox="0 0 16 30" style="enable-background:new 0 0 16 30;" xml:space="preserve">
<path stroke="#ffffff" fill="transparent" d="M15.6,17.5c0.1,4.7,0.1,7.3-1.7,9.2c-2,2-4.8,2-5.6,1.9c-0.7,0-3.7-0.1-5.8-2.4C0.9,24.3,0.8,22,0.8,18
	c0-4,0-6.3,1.6-8.2c2-2.4,5-2.5,5.7-2.5c0.6,0,3.9,0,6,2.6C15.6,11.6,15.6,13.6,15.6,17.5z"/>
<path stroke="#ffffff" fill="transparent" d="M0.8,15c3.1,0,14.8,0.2,14.8,0.2"/>
<path stroke="#ffffff" fill="transparent" d="M8,15V7.3C8,6,8.3,4.8,9.2,4.1c0.9-0.6,1.8-0.2,2.6-0.9c0.6-0.5,1-1.4,0.9-3.3"/>
<path stroke="#ffffff" fill="transparent" d="M224.7,33.5"/>
<path stroke="#ffffff" fill="transparent" d="M32.1,9.9"/>
<path stroke="#ffffff" fill="transparent" d="M1.9,0"/>
<path stroke="#ffffff" fill="transparent" d="M173.6,62.2"/>
</svg>
